<svg width="512" height="512" viewBox="0 0 512 512" fill="none" xmlns="http://www.w3.org/2000/svg">
  <circle cx="256" cy="256" r="256" fill="#FFD580"/>
  <path d="M256 120C180 120 140 200 140 280C140 360 180 400 256 400C332 400 372 360 372 280C372 200 332 120 256 120ZM200 240C211.046 240 220 248.954 220 260C220 271.046 211.046 280 200 280C188.954 280 180 271.046 180 260C180 248.954 188.954 240 200 240ZM312 240C323.046 240 332 248.954 332 260C332 271.046 323.046 280 312 280C300.954 280 292 271.046 292 260C292 248.954 300.954 240 312 240ZM220 320H292C292 342.091 276.091 360 256 360C235.909 360 220 342.091 220 320Z" fill="#1E293B"/>
</svg> 